#!OML:ASF X:\für Bonn\!DataBase\2005_08_12_Daniel\c3d\Daniel.ASF
:FULLY-SPECIFIED
:DEGREES
62
root 0.822438 17.2471 0.218077 793.744 -91.7783 -800.118
lowerback 11.335 -2.71792 -0.197329
upperback 1.40907 -3.90356 -3.34644
thorax -5.09876 -1.99201 -2.77844
lowerneck 37.66 3.56667 2.9808
upperneck 17.5003 2.81485 -0.675799
head 0.435092 0.489484 -0.974183
rclavicle 5.46658e-016 -1.74931e-014
rhumerus -189.944 212.092 203.916
rradius 27.2029
rwrist 313.834
rhand -55.4729 2.16992
rfingers 7.12502
rthumb -27.8324 -25.7887
lclavicle 5.46658e-016 -1.74931e-014
lhumerus -13.362 63.9098 -35.7103
lradius 18.8082
lwrist 22.4429
lhand -40.672 12.6966
lfingers 7.12502
lthumb -13.6155 42.2313
rfemur 8.3011 16.2839 12.4619
rtibia 17.8787
rfoot -26.1685 -21.2064
rtoes -11.9248
lfemur -1.44293 -17.5833 -17.5221
ltibia 32.5377
lfoot -26.6517 5.83167
ltoes 1.54011
63
root 0.807381 17.255 0.217539 798.884 -91.7693 -805.052
lowerback 10.8329 -2.73007 -0.315471
upperback 1.75819 -3.91231 -3.26247
thorax -4.44004 -1.99355 -2.65296
lowerneck 36.6662 3.50916 3.06057
upperneck 17.5585 2.84425 -0.873364
head 0.538562 0.549214 -1.04863
rclavicle -1.72943e-014 -4.21423e-014
rhumerus -193.371 207.746 203.07
rradius 26.688
rwrist 313.297
rhand -55.624 3.91353
rfingers 7.12502
rthumb -27.9768 -24.0216
lclavicle -1.72943e-014 -4.21423e-014
lhumerus -19.6138 58.8683 -36.9453
lradius 19.9634
lwrist 27.7393
lhand -40.2416 13.0832
lfingers 7.12502
lthumb -13.2007 42.6452
rfemur 8.29975 16.3794 12.4822
rtibia 17.7095
rfoot -26.3057 -21.4741
rtoes -11.9399
lfemur -1.60898 -17.8367 -17.5147
ltibia 32.5227
lfoot -26.6513 5.83235
ltoes 1.71298
64
root 0.794934 17.2603 0.21991 804.517 -91.7683 -810.537
lowerback 10.4483 -2.74796 -0.380045
upperback 2.08984 -3.92695 -3.19546
thorax -3.87196 -2.00026 -2.57056
lowerneck 35.6204 3.45461 3.15763
upperneck 17.6533 2.87756 -1.02306
head 0.661036 0.608343 -1.10913
rclavicle 9.16894e-015 1.59028e-014
rhumerus -196.449 203.236 201.357
rradius 26.2347
rwrist 312.428
rhand -55.9438 5.40709
rfingers 7.12502
rthumb -28.2825 -22.4778
lclavicle 9.16894e-015 1.59028e-014
lhumerus -24.6822 54.3634 -36.4829
lradius 21.3198
lwrist 32.4484
lhand -39.6847 13.6109
lfingers 7.12502
lthumb -12.6638 43.2069
rfemur 8.36212 16.4404 12.5044
rtibia 17.5238
rfoot -26.4027 -21.7115
rtoes -11.8868
lfemur -1.72914 -18.1414 -17.538
ltibia 32.5279
lfoot -26.7014 5.85807
ltoes 1.74956
65
root 0.784373 17.2653 0.223225 810.203 -91.7857 -816.051
lowerback 10.098 -2.78111 -0.465002
upperback 2.39942 -3.96481 -3.11615
thorax -3.34604 -2.01888 -2.46019
lowerneck 34.46 3.41943 3.26069
upperneck 17.7945 2.93516 -1.19093
head 0.812595 0.679911 -1.17688
rclavicle 4.21423e-014 3.49861e-014
rhumerus -199.27 198.575 198.853
rradius 25.8788
rwrist 311.242
rhand -56.3842 6.0596
rfingers 7.12502
rthumb -28.7034 -21.7548
lclavicle 4.21423e-014 3.49861e-014
lhumerus -29.1005 50.1618 -34.9891
lradius 22.6184
lwrist 36.6438
lhand -39.0667 14.2927
lfingers 7.12502
lthumb -12.068 43.9247
rfemur 8.3836 16.4927 12.5082
rtibia 17.3509
rfoot -26.545 -21.9304
rtoes -11.8044
lfemur -1.87353 -18.4914 -17.5719
ltibia 32.5375
lfoot -26.8134 5.91016
ltoes 1.88463
66
root 0.776636 17.2673 0.227015 815.727 -91.7994 -821.448
lowerback 9.8293 -2.80881 -0.502889
upperback 2.72289 -3.99464 -3.05929
thorax -2.8561 -2.03515 -2.39857
lowerneck 33.1699 3.37393 3.40369
upperneck 17.9664 2.9911 -1.31772
head 0.990101 0.752355 -1.23525
rclavicle -2.60408e-014 1.59028e-014
rhumerus -201.983 194.414 195.702
rradius 25.58
rwrist 310.127
rhand -56.7258 6.16788
rfingers 7.12502
rthumb -29.0297 -21.5908
lclavicle -2.60408e-014 1.59028e-014
lhumerus -33.018 46.5498 -32.6952
lradius 23.7868
lwrist 40.0594
lhand -38.5483 15.1186
lfingers 7.12502
lthumb -11.568 44.7793
rfemur 8.43487 16.5311 12.5396
rtibia 17.2028
rfoot -26.7019 -22.1326
rtoes -11.8455
lfemur -1.98813 -18.7589 -17.5849
ltibia 32.5577
lfoot -26.9091 5.9396
ltoes 1.99272
67
root 0.771416 17.2666 0.229007 820.844 -91.8262 -826.471
lowerback 9.61228 -2.84574 -0.567123
upperback 3.05868 -4.04188 -3.00726
thorax -2.38185 -2.06094 -2.32418
lowerneck 31.8097 3.34277 3.56421
upperneck 18.1538 3.06642 -1.45213
head 1.18491 0.834632 -1.2986
rclavicle 1.16289e-014 -8.74653e-015
rhumerus -204.491 191.274 192.08
rradius 25.2207
rwrist 309.574
rhand -56.7781 5.72066
rfingers 7.12502
rthumb -29.0796 -22.0294
lclavicle 1.16289e-014 -8.74653e-015
lhumerus -38.7102 49.545 -34.1276
lradius 22.8713
lwrist 35.8351
lhand -36.8061 15.1974
lfingers 7.12502
lthumb -9.8876 44.9453
rfemur 8.49097 16.6588 12.6133
rtibia 17.126
rfoot -27.0349 -22.3549
rtoes -11.8322
lfemur -2.07578 -18.9517 -17.5909
ltibia 32.5645
lfoot -27.039 5.9749
ltoes 2.00435
68
root 0.772625 17.2617 0.229561 826.59 -91.8712 -832.148
lowerback 9.4868 -2.90599 -0.66758
upperback 3.39247 -4.12611 -2.94233
thorax -1.95832 -2.10617 -2.20854
lowerneck 30.172 3.33524 3.72441
upperneck 18.3651 3.15898 -1.53773
head 1.48632 0.929267 -1.41555
rclavicle 6.60959e-015 9.54166e-015
rhumerus -206.725 191.95 188.872
rradius 24.4562
rwrist 312.392
rhand -55.8145 4.75337
rfingers 7.12502
rthumb -28.159 -23.1519
lclavicle 6.60959e-015 9.54166e-015
lhumerus -44.9711 52.0881 -36.2463
lradius 21.879
lwrist 31.5702
lhand -35.2633 15.4354
lfingers 7.12502
lthumb -8.39891 45.2484
rfemur 8.52769 16.8038 12.712
rtibia 17.0998
rfoot -27.4157 -22.6118
rtoes -11.7256
lfemur -2.17913 -19.1236 -17.5762
ltibia 32.5776
lfoot -27.1286 5.96831
ltoes 2.0941
69
root 0.780302 17.2554 0.23016 830.807 -91.9372 -836.34
lowerback 9.49338 -2.94758 -0.792771
upperback 3.7002 -4.19275 -2.88672
thorax -1.63249 -2.1439 -2.08401
lowerneck 28.5573 3.32826 3.88565
upperneck 18.5485 3.25934 -1.6486
head 1.76911 1.02445 -1.46345
rclavicle 6.4605e-014 1.82882e-014
rhumerus -208.861 195.799 186.548
rradius 23.3225
rwrist 318.166
rhand -53.9077 3.71738
rfingers 7.12502
rthumb -26.335 -24.4742
lclavicle 6.4605e-014 1.82882e-014
lhumerus -51.2801 53.8551 -38.4142
lradius 20.8773
lwrist 27.8365
lhand -34.0853 15.7263
lfingers 7.12502
lthumb -7.26186 45.5817
rfemur 8.54179 16.9144 12.7758
rtibia 17.1325
rfoot -27.7367 -22.8441
rtoes -11.7835
lfemur -2.25932 -19.1909 -17.5838
ltibia 32.5839
lfoot -27.2639 5.96531
ltoes 1.94467
70
root 0.794172 17.2459 0.229673 835.397 -92.0044 -840.929
lowerback 9.64027 -3.00369 -0.925836
upperback 3.95116 -4.28269 -2.80427
thorax -1.44003 -2.19364 -1.91571
lowerneck 26.6713 3.36539 3.96379
upperneck 18.8949 3.37672 -1.70362
head 2.14925 1.1204 -1.4745
rclavicle 1.75924e-014 2.38542e-015
rhumerus -210.892 199.522 184.448
rradius 22.1265
rwrist 323.713
rhand -51.5668 2.93668
rfingers 7.12502
rthumb -24.0922 -25.5708
lclavicle 1.75924e-014 2.38542e-015
lhumerus -56.752 54.4454 -39.4623
lradius 20.0066
lwrist 25.4557
lhand -33.2497 16.0834
lfingers 7.12502
lthumb -6.45529 45.965
rfemur 8.55555 17.0416 12.8727
rtibia 17.1899
rfoot -28.146 -23.0402
rtoes -11.6751
lfemur -2.33871 -19.2533 -17.5612
ltibia 32.5926
lfoot -27.4601 5.95623
ltoes 1.90341
71
root 0.811189 17.2345 0.229172 839.693 -92.0806 -845.266
lowerback 9.86721 -3.05272 -1.04894
upperback 4.1758 -4.36581 -2.72992
thorax -1.31894 -2.24047 -1.75673
lowerneck 24.8872 3.40525 4.04052
upperneck 19.1542 3.49522 -1.72278
head 2.48953 1.2158 -1.47494
rclavicle 9.64106e-015 -1.74931e-014
rhumerus -212.703 201.496 181.906
rradius 21.0196
rwrist 327.364
rhand -49.1309 2.4909
rfingers 7.12502
rthumb -21.7547 -26.3066
lclavicle 9.64106e-015 -1.74931e-014
lhumerus -60.8535 54.2275 -38.8665
lradius 19.296
lwrist 24.5627
lhand -32.7572 16.5573
lfingers 7.12502
lthumb -5.97984 46.4529
rfemur 8.60753 17.234 13.006
rtibia 17.2682
rfoot -28.6469 -23.2487
rtoes -11.4983
lfemur -2.39064 -19.2436 -17.531
ltibia 32.5943
lfoot -27.6927 5.91449
ltoes 1.63977
72
root 0.828329 17.2175 0.229242 843.152 -92.1898 -849.004
lowerback 10.3483 -3.09743 -1.19531
upperback 4.41688 -4.45596 -2.66711
thorax -1.31788 -2.29258 -1.5814
lowerneck 23.5269 3.46081 4.0103
upperneck 19.1573 3.61394 -1.6996
head 2.67989 1.30234 -1.44769
rclavicle 6.95746e-015 5.56597e-015
rhumerus -214.301 202.96 179.236
rradius 19.9088
rwrist 330.469
rhand -46.5219 2.41909
rfingers 7.12502
rthumb -19.2476 -26.6484
lclavicle 6.95746e-015 5.56597e-015
lhumerus -63.8238 53.6599 -37.007
lradius 18.6524
lwrist 24.7289
lhand -32.4035 16.9789
lfingers 7.12502
lthumb -5.63835 46.8839
rfemur 8.93439 17.4407 13.1946
rtibia 17.3373
rfoot -29.1183 -23.4994
rtoes -11.5155
lfemur -2.15851 -19.2628 -17.6333
ltibia 32.596
lfoot -27.9551 5.91531
ltoes 1.48934
